<svg width="169" height="30" viewBox="0 0 169 30" fill="none" xmlns="http://www.w3.org/2000/svg">
<path d="M40.6122 24.35C38.8789 24.35 37.4205 23.9667 36.2372 23.2C35.0539 22.4167 34.2205 21.3583 33.7372 20.025L36.6872 18.3C37.3705 20.0833 38.7122 20.975 40.7122 20.975C41.6789 20.975 42.3872 20.8 42.8372 20.45C43.2872 20.1 43.5122 19.6583 43.5122 19.125C43.5122 18.5083 43.2372 18.0333 42.6872 17.7C42.1372 17.35 41.1539 16.975 39.7372 16.575C38.9539 16.3417 38.2872 16.1083 37.7372 15.875C37.2039 15.6417 36.6622 15.3333 36.1122 14.95C35.5789 14.55 35.1705 14.05 34.8872 13.45C34.6039 12.85 34.4622 12.15 34.4622 11.35C34.4622 9.76667 35.0205 8.50833 36.1372 7.575C37.2705 6.625 38.6289 6.15 40.2122 6.15C41.6289 6.15 42.8705 6.5 43.9372 7.2C45.0205 7.88333 45.8622 8.84167 46.4622 10.075L43.5622 11.75C42.8622 10.25 41.7455 9.5 40.2122 9.5C39.4955 9.5 38.9289 9.66667 38.5122 10C38.1122 10.3167 37.9122 10.7333 37.9122 11.25C37.9122 11.8 38.1372 12.25 38.5872 12.6C39.0539 12.9333 39.9372 13.3 41.2372 13.7C41.7705 13.8667 42.1705 14 42.4372 14.1C42.7205 14.1833 43.0955 14.325 43.5622 14.525C44.0455 14.7083 44.4122 14.8833 44.6622 15.05C44.9289 15.2167 45.2289 15.4417 45.5622 15.725C45.8955 16.0083 46.1455 16.3 46.3122 16.6C46.4955 16.9 46.6455 17.2667 46.7622 17.7C46.8955 18.1167 46.9622 18.575 46.9622 19.075C46.9622 20.6917 46.3705 21.975 45.1872 22.925C44.0205 23.875 42.4955 24.35 40.6122 24.35ZM62.8874 11.15C64.3207 11.15 65.4624 11.6167 66.3124 12.55C67.1791 13.4833 67.6124 14.7333 67.6124 16.3V24H64.3874V16.525C64.3874 15.775 64.2041 15.1917 63.8374 14.775C63.4707 14.3583 62.9541 14.15 62.2874 14.15C61.5541 14.15 60.9791 14.3917 60.5624 14.875C60.1624 15.3583 59.9624 16.0583 59.9624 16.975V24H56.7374V16.525C56.7374 15.775 56.5541 15.1917 56.1874 14.775C55.8207 14.3583 55.3041 14.15 54.6374 14.15C53.9207 14.15 53.3457 14.3917 52.9124 14.875C52.4957 15.3583 52.2874 16.0583 52.2874 16.975V24H49.0624V11.5H52.2874V12.825C53.0374 11.7083 54.1957 11.15 55.7624 11.15C57.2957 11.15 58.4291 11.75 59.1624 12.95C59.9957 11.75 61.2374 11.15 62.8874 11.15ZM79.8515 11.5H83.0765V24H79.8515V22.525C78.8848 23.7417 77.5265 24.35 75.7765 24.35C74.1098 24.35 72.6765 23.7167 71.4765 22.45C70.2931 21.1667 69.7015 19.6 69.7015 17.75C69.7015 15.9 70.2931 14.3417 71.4765 13.075C72.6765 11.7917 74.1098 11.15 75.7765 11.15C77.5265 11.15 78.8848 11.7583 79.8515 12.975V11.5ZM73.9015 20.3C74.5515 20.95 75.3765 21.275 76.3765 21.275C77.3765 21.275 78.2015 20.95 78.8515 20.3C79.5181 19.6333 79.8515 18.7833 79.8515 17.75C79.8515 16.7167 79.5181 15.875 78.8515 15.225C78.2015 14.5583 77.3765 14.225 76.3765 14.225C75.3765 14.225 74.5515 14.5583 73.9015 15.225C73.2515 15.875 72.9265 16.7167 72.9265 17.75C72.9265 18.7833 73.2515 19.6333 73.9015 20.3ZM89.2259 13.65C89.5259 12.85 90.0175 12.25 90.7009 11.85C91.4009 11.45 92.1759 11.25 93.0259 11.25V14.85C92.0425 14.7333 91.1592 14.9333 90.3759 15.45C89.6092 15.9667 89.2259 16.825 89.2259 18.025V24H86.0009V11.5H89.2259V13.65ZM102.404 14.6H99.5788V19.8C99.5788 20.2333 99.6871 20.55 99.9038 20.75C100.12 20.95 100.437 21.0667 100.854 21.1C101.27 21.1167 101.787 21.1083 102.404 21.075V24C100.187 24.25 98.6205 24.0417 97.7038 23.375C96.8038 22.7083 96.3538 21.5167 96.3538 19.8V14.6H94.1788V11.5H96.3538V8.975L99.5788 8V11.5H102.404V14.6ZM108.529 20.975H114.079V24H104.204V21.85L109.479 14.525H104.454V11.5H113.829V13.65L108.529 20.975ZM126.314 22.45C125.031 23.7167 123.464 24.35 121.614 24.35C119.764 24.35 118.197 23.7167 116.914 22.45C115.647 21.1667 115.014 19.6 115.014 17.75C115.014 15.9 115.647 14.3417 116.914 13.075C118.197 11.7917 119.764 11.15 121.614 11.15C123.464 11.15 125.031 11.7917 126.314 13.075C127.597 14.3417 128.239 15.9 128.239 17.75C128.239 19.6 127.597 21.1667 126.314 22.45ZM119.189 20.225C119.839 20.875 120.647 21.2 121.614 21.2C122.581 21.2 123.389 20.875 124.039 20.225C124.689 19.575 125.014 18.75 125.014 17.75C125.014 16.75 124.689 15.925 124.039 15.275C123.389 14.625 122.581 14.3 121.614 14.3C120.647 14.3 119.839 14.625 119.189 15.275C118.556 15.925 118.239 16.75 118.239 17.75C118.239 18.75 118.556 19.575 119.189 20.225ZM137.458 11.15C138.824 11.15 139.949 11.6083 140.833 12.525C141.733 13.4417 142.183 14.7083 142.183 16.325V24H138.958V16.725C138.958 15.8917 138.733 15.2583 138.283 14.825C137.833 14.375 137.233 14.15 136.483 14.15C135.649 14.15 134.983 14.4083 134.483 14.925C133.983 15.4417 133.733 16.2167 133.733 17.25V24H130.508V11.5H133.733V12.9C134.516 11.7333 135.758 11.15 137.458 11.15ZM147.661 19.075C148.095 20.6417 149.27 21.425 151.186 21.425C152.42 21.425 153.353 21.0083 153.986 20.175L156.586 21.675C155.353 23.4583 153.536 24.35 151.136 24.35C149.07 24.35 147.411 23.725 146.161 22.475C144.911 21.225 144.286 19.65 144.286 17.75C144.286 15.8667 144.903 14.3 146.136 13.05C147.37 11.7833 148.953 11.15 150.886 11.15C152.72 11.15 154.228 11.7833 155.411 13.05C156.611 14.3167 157.211 15.8833 157.211 17.75C157.211 18.1667 157.17 18.6083 157.086 19.075H147.661ZM147.611 16.575H153.986C153.803 15.725 153.42 15.0917 152.836 14.675C152.27 14.2583 151.62 14.05 150.886 14.05C150.02 14.05 149.303 14.275 148.736 14.725C148.17 15.1583 147.795 15.775 147.611 16.575Z" fill="#2C8EEA"/>
<circle cx="12" cy="15" r="12" fill="#2C8EEA"/>
<circle cx="11.5634" cy="13.2397" r="5.91125" transform="rotate(3.27917 11.5634 13.2397)" fill="white"/>
<path d="M6.82678 16.6517L11.3337 23.5974L16.3773 16.8247L6.82678 16.6517Z" fill="white"/>
<path d="M11.7916 17.141C11.0983 17.141 10.515 16.9877 10.0416 16.681C9.56829 16.3677 9.23496 15.9444 9.04163 15.411L10.2216 14.721C10.495 15.4344 11.0316 15.791 11.8316 15.791C12.2183 15.791 12.5016 15.721 12.6816 15.581C12.8616 15.441 12.9516 15.2644 12.9516 15.051C12.9516 14.8044 12.8416 14.6144 12.6216 14.481C12.4016 14.341 12.0083 14.191 11.4416 14.031C11.1283 13.9377 10.8616 13.8444 10.6416 13.751C10.4283 13.6577 10.2116 13.5344 9.99163 13.381C9.77829 13.221 9.61496 13.021 9.50163 12.781C9.38829 12.541 9.33163 12.261 9.33163 11.941C9.33163 11.3077 9.55496 10.8044 10.0016 10.431C10.455 10.051 10.9983 9.86104 11.6316 9.86104C12.1983 9.86104 12.695 10.001 13.1216 10.281C13.555 10.5544 13.8916 10.9377 14.1316 11.431L12.9716 12.101C12.6916 11.501 12.245 11.201 11.6316 11.201C11.345 11.201 11.1183 11.2677 10.9516 11.401C10.7916 11.5277 10.7116 11.6944 10.7116 11.901C10.7116 12.121 10.8016 12.301 10.9816 12.441C11.1683 12.5744 11.5216 12.721 12.0416 12.881C12.255 12.9477 12.415 13.001 12.5216 13.041C12.635 13.0744 12.785 13.131 12.9716 13.211C13.165 13.2844 13.3116 13.3544 13.4116 13.421C13.5183 13.4877 13.6383 13.5777 13.7716 13.691C13.905 13.8044 14.005 13.921 14.0716 14.041C14.145 14.161 14.205 14.3077 14.2516 14.481C14.305 14.6477 14.3316 14.831 14.3316 15.031C14.3316 15.6777 14.095 16.191 13.6216 16.571C13.155 16.951 12.545 17.141 11.7916 17.141Z" fill="#2C8EEA"/>
<circle cx="166" cy="21" r="3" fill="#2C8EEA"/>
</svg>
